#!OML:ASF H:\ManfredETheater\Project 1\Capture day 1\Session 1\subject.ASF
:FULLY-SPECIFIED
:DEGREES
129
root 3.10191 16.7825 -41.1721 -169.575 -4.28356 -177.433
lowerback 14.1659 -1.09543 0.277331
upperback -2.47424 -1.15429 4.25349
thorax -10.6035 -0.479705 4.76436
lowerneck -23.9599 -1.81131 -2.87923
upperneck 5.5813 -1.14393 0.0582172
head 5.47221 -0.455118 0.36132
rclavicle 1.59028e-015 -3.97569e-014
rhumerus -49.147 2.28139 -86.3575
rradius 79.9783
rwrist -12.9354
rhand -25.0242 11.9889
rfingers 7.12502
rthumb 1.48823 -17.9857
lclavicle 1.59028e-015 -3.97569e-014
lhumerus -49.4708 -2.5976 91.412
lradius 88.7992
lwrist 17.4167
lhand -24.8103 -11.4604
lfingers 7.12502
lthumb 1.69483 18.5126
rfemur -33.0291 2.76164 31.8573
rtibia 53.2844
rfoot -23.2888 -11.8329
rtoes -22.8429
lfemur -27.9112 3.10316 -6.32133
ltibia 116.01
lfoot 12.2116 -11.4405
ltoes 14.0622
130
root 3.12431 16.7971 -41.8146 -169.348 -4.63684 -177.41
lowerback 13.7885 -1.0751 0.18815
upperback -2.61886 -1.1436 4.28959
thorax -10.5425 -0.46756 4.84224
lowerneck -24.0292 -1.84555 -2.84176
upperneck 5.82574 -1.21087 0.0551679
head 5.56207 -0.495274 0.345481
rclavicle -2.40529e-014 3.4191e-014
rhumerus -47.7577 2.93872 -86.9726
rradius 82.533
rwrist -13.0018
rhand -24.6994 12.1507
rfingers 7.12502
rthumb 1.80189 -17.8215
lclavicle -2.40529e-014 3.4191e-014
lhumerus -51.6511 -2.85749 91.4915
lradius 88.3824
lwrist 16.9331
lhand -24.6252 -11.7266
lfingers 7.12502
lthumb 1.87352 18.2449
rfemur -30.0944 2.34822 32.267
rtibia 52.1664
rfoot -24.6817 -12.5663
rtoes -24.1983
lfemur -32.2201 3.1832 -6.73336
ltibia 116.464
lfoot 9.93832 -10.35
ltoes 13.0583
131
root 3.14396 16.8208 -42.4662 -169.18 -5.02726 -177.404
lowerback 13.4 -1.04292 0.171101
upperback -2.76604 -1.10704 4.28084
thorax -10.4814 -0.44864 4.82328
lowerneck -24.1308 -1.94963 -2.92099
upperneck 6.18595 -1.35778 0.184771
head 5.69712 -0.569952 0.381004
rclavicle -4.57205e-015 2.94201e-014
rhumerus -46.6994 3.52221 -87.5374
rradius 85.5506
rwrist -13.2633
rhand -24.3842 12.322
rfingers 7.12502
rthumb 2.10635 -17.6473
lclavicle -4.57205e-015 2.94201e-014
lhumerus -53.9735 -3.44057 91.6872
lradius 88.5349
lwrist 16.383
lhand -24.3243 -11.8976
lfingers 7.12502
lthumb 2.16413 18.0712
rfemur -26.9103 1.80047 32.6331
rtibia 50.6728
rfoot -25.7591 -12.9669
rtoes -25.4566
lfemur -36.2507 2.99273 -7.36121
ltibia 116.278
lfoot 7.73948 -9.09392
ltoes 11.9665
132
root 3.15967 16.8506 -43.1265 -169.1 -5.40795 -177.364
lowerback 13.0334 -0.975653 0.278306
upperback -2.91152 -1.00555 4.23008
thorax -10.4384 -0.407685 4.67439
lowerneck -24.2176 -1.73088 -3.28513
upperneck 6.61501 -1.69995 0.45958
head 5.85587 -1.0241 0.45615
rclavicle 6.16232e-015 6.36111e-015
rhumerus -45.9386 4.0578 -88.0388
rradius 88.9211
rwrist -13.6881
rhand -24.0877 12.4742
rfingers 7.12502
rthumb 2.39266 -17.4921
lclavicle 6.16232e-015 6.36111e-015
lhumerus -56.4085 -4.27991 91.9927
lradius 89.1691
lwrist 15.9022
lhand -23.9609 -12.0039
lfingers 7.12502
lthumb 2.51514 17.961
rfemur -23.5007 1.1673 32.9947
rtibia 48.8746
rfoot -26.3834 -13.059
rtoes -26.7793
lfemur -39.9031 2.58895 -8.07744
ltibia 115.491
lfoot 5.55889 -7.77528
ltoes 10.7987
133
root 3.17103 16.8842 -43.793 -169.088 -5.7183 -177.278
lowerback 12.6814 -0.852734 0.505683
upperback -3.05872 -0.813501 4.13844
thorax -10.4134 -0.332319 4.39459
lowerneck -24.2417 -2.02502 -3.51282
upperneck 7.05274 -2.02077 0.743974
head 6.01319 -1.14958 0.546215
rclavicle 1.39149e-015 -5.56597e-015
rhumerus -45.4226 4.58971 -88.4631
rradius 92.5206
rwrist -14.1719
rhand -23.8158 12.6042
rfingers 7.12502
rthumb 2.65525 -17.359
lclavicle 1.39149e-015 -5.56597e-015
lhumerus -58.9137 -5.27629 92.3731
lradius 90.1765
lwrist 15.603
lhand -23.5528 -12.0324
lfingers 7.12502
lthumb 2.90923 17.9275
rfemur -19.9617 0.532529 33.3394
rtibia 46.869
rfoot -26.5034 -12.7531
rtoes -28.1795
lfemur -43.1824 2.05961 -8.81209
ltibia 114.16
lfoot 3.4077 -6.5093
ltoes 9.53038
134
root 3.17714 16.9213 -44.4658 -169.137 -5.92399 -177.128
lowerback 12.3335 -0.667091 0.867794
upperback -3.20118 -0.520841 4.01023
thorax -10.3906 -0.219266 3.9789
lowerneck -24.2051 -2.37702 -3.7868
upperneck 7.492 -2.41329 1.06699
head 6.16679 -1.307 0.647626
rclavicle 3.08116e-015 2.14687e-014
rhumerus -45.0893 5.1515 -88.7982
rradius 96.2432
rwrist -14.6067
rhand -23.5791 12.7365
rfingers 7.12502
rthumb 2.88389 -17.2237
lclavicle 3.08116e-015 2.14687e-014
lhumerus -61.4482 -6.32904 92.7816
lradius 91.4511
lwrist 15.5692
lhand -23.1164 -12.0094
lfingers 7.12502
lthumb 3.33069 17.9443
rfemur -16.3588 -0.0532817 33.6628
rtibia 44.7487
rfoot -26.0636 -11.9955
rtoes -29.6089
lfemur -46.0665 1.46038 -9.5037
ltibia 112.315
lfoot 1.28561 -5.3577
ltoes 8.24293
135
root 3.17768 16.9639 -45.1446 -169.213 -6.00422 -176.929
lowerback 11.9593 -0.419453 1.34123
upperback -3.33648 -0.134494 3.84476
thorax -10.3439 -0.070588 3.44204
lowerneck -24.104 -2.76904 -4.07272
upperneck 7.90701 -2.86355 1.39849
head 6.30737 -1.49212 0.746735
rclavicle -4.57205e-015 -2.54444e-014
rhumerus -44.8707 5.77113 -89.0351
rradius 99.9919
rwrist -14.8823
rhand -23.3836 12.8614
rfingers 7.12502
rthumb 3.07263 -17.0962
lclavicle -4.57205e-015 -2.54444e-014
lhumerus -63.9594 -7.34729 93.1642
lradius 92.8772
lwrist 15.8303
lhand -22.6945 -11.9788
lfingers 7.12502
lthumb 3.73814 17.9682
rfemur -12.7782 -0.559382 33.925
rtibia 42.5873
rfoot -25.0161 -10.7131
rtoes -30.9094
lfemur -48.5724 0.832922 -10.144
ltibia 109.974
lfoot -0.752702 -4.3636
ltoes 6.81086
136
root 3.17242 17.0146 -45.8298 -169.292 -5.96145 -176.667
lowerback 11.5464 -0.121398 1.93409
upperback -3.476 0.329539 3.65853
thorax -10.2719 0.105866 2.80348
lowerneck -23.9185 -3.17246 -4.33947
upperneck 8.2863 -3.34031 1.70612
head 6.42658 -1.69218 0.832115
rclavicle -2.88238e-015 7.95139e-015
rhumerus -44.746 6.46629 -89.1675
rradius 103.695
rwrist -14.917
rhand -23.2001 13.0263
rfingers 7.12502
rthumb 3.24985 -16.9286
lclavicle -2.88238e-015 7.95139e-015
lhumerus -66.4335 -8.25174 93.479
lradius 94.3599
lwrist 16.3548
lhand -22.2873 -11.9439
lfingers 7.12502
lthumb 4.13132 17.9958
rfemur -9.27223 -0.991522 34.125
rtibia 40.4147
rfoot -23.2729 -8.88021
rtoes -31.9794
lfemur -50.71 0.213125 -10.6838
ltibia 107.141
lfoot -2.64312 -3.5564
ltoes 5.41867
137
root 3.16286 17.0765 -46.5229 -169.346 -5.80568 -176.373
lowerback 11.0624 0.212604 2.58442
upperback -3.61822 0.83963 3.46224
thorax -10.1478 0.29984 2.11866
lowerneck -23.6725 -3.56161 -4.57406
upperneck 8.63591 -3.81143 1.97766
head 6.52813 -1.89284 0.901572
rclavicle 1.74931e-014 3.33958e-014
rhumerus -44.6755 7.25923 -89.1916
rradius 107.305
rwrist -14.7343
rhand -22.9879 13.2449
rfingers 7.12502
rthumb 3.45479 -16.7068
lclavicle 1.74931e-014 3.33958e-014
lhumerus -68.841 -8.97581 93.6894
lradius 95.8234
lwrist 17.0403
lhand -21.9173 -11.9576
lfingers 7.12502
lthumb 4.48864 17.9749
rfemur -5.87423 -1.34721 34.2224
rtibia 38.2162
rfoot -20.6691 -6.57154
rtoes -32.7301
lfemur -52.4869 -0.38278 -11.1231
ltibia 103.81
lfoot -4.37048 -2.95004
ltoes 4.05823
138
root 3.15138 17.1493 -47.2252 -169.36 -5.52409 -176.076
lowerback 10.4773 0.579112 3.21039
upperback -3.7502 1.37624 3.26899
thorax -9.93791 0.509179 1.45477
lowerneck -23.4108 -3.92104 -4.78097
upperneck 8.97727 -4.25381 2.21889
head 6.62467 -2.08266 0.960092
rclavicle 1.98785e-016 -5.725e-014
rhumerus -44.6253 8.1517 -89.1144
rradius 110.764
rwrist -14.3104
rhand -22.7294 13.558
rfingers 7.12502
rthumb 3.70438 -16.3895
lclavicle 1.98785e-016 -5.725e-014
lhumerus -71.1555 -9.48225 93.7784
lradius 97.2227
lwrist 17.764
lhand -21.6325 -11.9821
lfingers 7.12502
lthumb 4.76366 17.9444
rfemur -2.59347 -1.57529 34.1911
rtibia 35.9627
rfoot -16.9557 -3.95124
rtoes -33.0516
lfemur -53.8852 -0.900701 -11.4726
ltibia 99.9885
lfoot -6.01061 -2.5114
ltoes 2.31703
139
root 3.13756 17.2319 -47.9379 -169.358 -5.16351 -175.794
lowerback 9.81361 0.956508 3.80165
upperback -3.87263 1.90917 3.08513
thorax -9.65705 0.72158 0.833569
lowerneck -23.1447 -4.23996 -4.96101
upperneck 9.33525 -4.65119 2.42917
head 6.72488 -2.25353 1.00947
rclavicle 6.85807e-015 2.8625e-014
rhumerus -44.6035 9.1221 -88.9393
rradius 114.048
rwrist -13.7021
rhand -22.4171 13.9536
rfingers 7.12502
rthumb 4.00601 -15.9885
lclavicle 6.85807e-015 2.8625e-014
lhumerus -73.3921 -9.77133 93.7482
lradius 98.5251
lwrist 18.4057
lhand -21.4467 -11.995
lfingers 7.12502
lthumb 4.94302 17.9274
rfemur 0.430357 -1.73595 34.0136
rtibia 34.0201
rfoot -12.1098 -1.30641
rtoes -32.6572
lfemur -54.8828 -1.38144 -11.7431
ltibia 95.7474
lfoot -7.49312 -2.25233
ltoes 0.68854
140
root 3.12312 17.3201 -48.6584 -169.358 -4.73068 -175.529
lowerback 9.09854 1.33458 4.32389
upperback -3.98167 2.42219 2.92358
thorax -9.32113 0.932509 0.292525
lowerneck -22.8707 -4.51483 -5.1253
upperneck 9.71325 -4.99615 2.61397
head 6.82889 -2.4018 1.0543
rclavicle -2.88238e-015 3.02153e-014
rhumerus -44.6076 10.1474 -88.6784
rradius 117.145
rwrist -12.969
rhand -22.0322 14.3875
rfingers 7.12502
rthumb 4.37767 -15.5472
lclavicle -2.88238e-015 3.02153e-014
lhumerus -75.5546 -9.84307 93.6016
lradius 99.7079
lwrist 18.8699
lhand -21.3811 -12.0412
lfingers 7.12502
lthumb 5.00637 17.8796
rfemur 3.39433 -1.80073 33.7161
rtibia 31.9954
rfoot -5.76315 0.976294
rtoes -31.1549
lfemur -55.5223 -1.79222 -11.9347
ltibia 91.0962
lfoot -8.79406 -2.14277
ltoes -0.836848
141
root 3.0822 17.3188 -49.3303 -169.209 -4.55811 -175.054
lowerback 8.42048 1.68369 5.41773
upperback -4.22881 2.95314 2.71805
thorax -9.11838 1.10859 -0.603067
lowerneck -22.404 -4.80936 -5.30157
upperneck 9.95879 -5.38394 2.83434
head 6.86317 -2.57088 1.11132
rclavicle 2.46493e-014 2.14687e-014
rhumerus -44.7169 11.1253 -88.3386
rradius 120.729
rwrist -12.0957
rhand -21.5762 14.8475
rfingers 7.12502
rthumb 4.818 -15.0777
lclavicle 2.46493e-014 2.14687e-014
lhumerus -77.8741 -10.1597 93.409
lradius 101.082
lwrist 19.8871
lhand -20.8288 -12.4828
lfingers 7.12502
lthumb 5.53961 17.4248
rfemur 6.24758 -2.5606 33.4661
rtibia 29.9672
rfoot -0.257957 2.46822
rtoes -31.8
lfemur -56.3112 -2.56111 -11.7459
ltibia 86.3466
lfoot -10.0243 -2.0369
ltoes -1.43688
142
root 3.08833 17.3877 -50.0706 -169.374 -3.7046 -174.896
lowerback 7.67438 2.1589 5.27965
upperback -4.18604 3.50523 2.68105
thorax -8.61055 1.39647 -0.621216
lowerneck -22.386 -5.02474 -5.52798
upperneck 10.5355 -5.63869 3.0724
head 7.07537 -2.6726 1.18838
rclavicle 9.74045e-015 -3.65764e-014
rhumerus -44.6334 12.2588 -87.9266
rradius 123.347
rwrist -10.9809
rhand -20.8166 15.1825
rfingers 7.12502
rthumb 5.55138 -14.7248
lclavicle 9.74045e-015 -3.65764e-014
lhumerus -79.8373 -9.79017 93.1294
lradius 102.047
lwrist 19.5578
lhand -21.5731 -11.9882
lfingers 7.12502
lthumb 4.821 17.937
rfemur 9.12821 -1.69246 33.0813
rtibia 27.842
rfoot 10.0344 2.47429
rtoes -29.8152
lfemur -55.9902 -2.53146 -11.8281
ltibia 80.968
lfoot -12.2144 -1.5717
ltoes -9.709
143
root 3.07184 17.4611 -50.824 -169.473 -3.21038 -175.006
lowerback 6.63971 2.45892 5.33845
upperback -4.13615 3.81687 2.51589
thorax -7.92019 1.56097 -0.824832
lowerneck -22.3252 -5.13314 -5.65969
upperneck 11.129 -5.76723 3.19568
head 7.27624 -2.72173 1.22966
rclavicle 1.33186e-014 -5.88403e-014
rhumerus -44.502 13.3094 -87.3984
rradius 125.709
rwrist -10.1649
rhand -20.3533 15.562
rfingers 7.12502
rthumb 5.99873 -14.3331
lclavicle 1.33186e-014 -5.88403e-014
lhumerus -81.6812 -9.37786 92.6606
lradius 102.807
lwrist 19.2426
lhand -21.8354 -11.5752
lfingers 7.12502
lthumb 4.56773 18.3556
rfemur 11.8743 -1.60338 32.1373
rtibia 26.0589
rfoot 19.4101 2.07256
rtoes -26.6358
lfemur -55.6436 -3.02851 -12.1615
ltibia 75.4213
lfoot -11.8335 -2.378
ltoes -5.34777
